HIERARCHY
ROOT simHips
{
  OFFSET 15.006 99.4359 -2.54788
  CHANNELS 6 Xposition Yposition Zposition Zrotation Xrotation Yrotation
  JOINT simSpine
  {
    OFFSET -0.000355721 21.3001 -0.016921
    CHANNELS 3 Zrotation Xrotation Yrotation
    JOINT simLeftArm
    {
      OFFSET 13.5181 21.3012 0
      CHANNELS 3 Zrotation Xrotation Yrotation
      JOINT simLeftForeArm
      {
        OFFSET 24.5783 0 0
        CHANNELS 3 Zrotation Xrotation Yrotation
        JOINT simLeftHand
        {
          OFFSET 24.5783 0 0
          CHANNELS 3 Zrotation Xrotation Yrotation
          End Site
          {
            OFFSET 7.32568 1.52588e-005 0.0169305
          }
        }
      }
    }
    JOINT simHead
    {
      OFFSET 0 27.4458 -0.00489235
      CHANNELS 3 Zrotation Xrotation Yrotation
      End Site
      {
        OFFSET 0 0 0
      }
    }
    JOINT simRightArm
    {
      OFFSET -13.5174 21.3012 0
      CHANNELS 3 Zrotation Xrotation Yrotation
      JOINT simRightForeArm
      {
        OFFSET -24.5783 0 0
        CHANNELS 3 Zrotation Xrotation Yrotation
        JOINT simRightHand
        {
          OFFSET -24.5783 0 0
          CHANNELS 3 Zrotation Xrotation Yrotation
          End Site
          {
            OFFSET -7.32568 1.52588e-005 0.0169305
          }
        }
      }
    }
  }
  JOINT simRightUpLeg
  {
    OFFSET -8.44614 -9.41038 0.835684
    CHANNELS 3 Zrotation Xrotation Yrotation
    JOINT simRightLeg
    {
      OFFSET 0 -40.9639 0
      CHANNELS 3 Zrotation Xrotation Yrotation
      JOINT simRightFoot
      {
        OFFSET 0 -40.9639 0
        CHANNELS 3 Zrotation Xrotation Yrotation
        End Site
        {
          OFFSET 0.50614 -9.67405 14.6709
        }
      }
    }
  }
  JOINT simLeftUpLeg
  {
    OFFSET 8.44614 -9.41038 0.835684
    CHANNELS 3 Zrotation Xrotation Yrotation
    JOINT simLeftLeg
    {
      OFFSET 0 -40.9639 0
      CHANNELS 3 Zrotation Xrotation Yrotation
      JOINT simLeftFoot
      {
        OFFSET 0 -40.9639 0
        CHANNELS 3 Zrotation Xrotation Yrotation
        End Site
        {
          OFFSET -0.50614 -9.67405 14.6709
        }
      }
    }
  }
}
MOTION
Frames:	19
Frame Time:	0.0333333
44.2738 87.0239 8.20488 6.5796 1.71842 -40.6733 -7.77569 20.4751 -0.220619 -42.2214 6.38735 8.91688 -17.2846 -4.1159 -59.447 7.93245 5.53385 -26.9979 3.20445 -17.5828 0.753926 47.82 29.4625 31.5295 4.56119 -20.2495 67.5214 -14.5258 -3.80551 33.7679 -9.91871 -13.4841 -0.348568 37.4569 59.7443 -35.7554 -5.58589 -27.1911 -3.76826 4.23278 -32.7108 7.79023 145.867 87.0367 -138.954 17.7344 -2.91844 -15.5047 
38.8784 87.9268 13.8728 5.06938 1.09892 -36.4626 -7.58721 20.372 -1.82593 -40.3132 9.5264 16.052 -20.2405 -4.72181 -62.4573 8.71998 6.28922 -28.0533 4.51444 -16.3988 0.00669739 45.6939 29.5423 34.3177 4.20897 -22.1304 83.0294 -19.1918 -3.94401 35.7204 -8.80054 -1.85271 -0.772874 33.0136 50.8803 -32.7534 -5.66691 -20.9052 -1.23235 -0.716579 -41.7781 8.91056 79.8803 84.2919 -75.3123 9.65525 -8.376 -7.79225 
33.0718 89.174 19.9233 3.92213 0.640658 -32.8516 -8.21923 20.0244 -2.54239 -39.9518 13.5313 21.8676 -24.901 -5.62741 -64.5238 9.93048 6.85685 -28.3793 5.9227 -16.3109 -1.26396 45.3469 28.326 34.5308 1.55511 -21.4521 94.0541 -23.5663 -3.32703 36.4724 -6.2905 8.33573 -1.62232 27.1064 42.3835 -30.2054 -7.50952 -8.4644 4.71235 -8.66437 -46.716 6.79042 39.149 74.2056 -35.3841 4.47405 -11.0379 -6.73973 
26.7808 90.4469 26.5669 3.24884 0.311109 -30.0804 -8.58816 19.5303 -1.93835 -41.7983 16.635 25.3081 -28.9457 -6.25361 -64.9961 10.1909 6.97776 -27.7131 6.02692 -17.3146 -3.57103 42.0262 30.1279 36.1498 2.67624 -21.5377 95.5159 -28.5084 -2.37777 38.2621 -3.03411 16.6286 -4.59073 19.2198 35.2701 -28.308 -15.0911 7.42597 18.2887 -15.1574 -46.2076 4.36086 22.3445 57.1566 -20.0679 0.202462 -12.8843 -11.2324 
20.0111 91.208 33.3636 2.32259 0.358906 -28.4739 -8.02035 18.19 0.262182 -45.1628 18.0236 27.0991 -31.7769 -6.48748 -63.8713 8.32806 6.18618 -25.431 4.87674 -17.6838 -7.16315 37.5425 33.5415 37.923 5.19916 -22.4378 88.668 -24.1967 -2.92738 38.0632 1.21414 22.0207 -9.34767 10.2639 31.8409 -26.6522 -24.4487 16.0616 39.2474 -16.2771 -41.7768 4.18414 10.9965 36.1941 -11.3825 -1.52169 -11.8459 -17.3552 
13.2655 91.0202 40.2938 0.636254 0.262521 -28.2671 -6.25939 16.6802 3.11582 -49.2537 18.0059 28.08 -33.6514 -6.45135 -61.1612 5.5083 4.77106 -21.9599 2.83981 -16.8349 -11.6194 34.2142 35.352 38.7764 5.51344 -21.9833 77.175 -15.7354 -3.3705 35.054 3.40686 24.6687 -11.7768 5.97635 33.1167 -26.3914 -31.4675 18.0918 53.2524 -14.7612 -34.7262 5.19629 3.99818 16.2341 -5.53821 -0.455841 -7.61232 -17.6414 
6.96645 89.8354 47.2434 -1.02069 -0.388445 -29.4897 -5.33911 15.3284 5.52703 -52.8643 15.9042 28.8442 -34.0541 -6.23121 -56.2859 3.19896 3.13953 -18.9124 1.67904 -14.3765 -14.9981 32.5926 35.9501 40.5132 3.02251 -17.3231 62.4155 -16.8741 -1.79727 35.3272 1.27883 23.6587 -7.85579 9.96554 42.9402 -28.6036 -32.7593 12.7964 54.7348 -14.4871 -29.6004 4.44858 2.95091 7.7056 -3.93934 1.18985 -3.50547 -16.738 
1.43478 88.0752 53.84 -2.35589 -1.71072 -30.9464 -5.58152 14.7962 6.37624 -55.3908 12.4962 28.1023 -32.1954 -6.05585 -49.368 1.62193 1.52996 -17.4004 2.05979 -11.3377 -15.7286 32.7317 35.3575 43.3687 -0.443652 -9.05187 46.9576 -17.6623 -0.141271 33.7905 -3.57912 20.1703 -3.29632 20.1282 56.0903 -36.9566 -35.2159 7.07037 55.7704 -15.3867 -31.444 4.09442 4.41774 18.7472 -4.9773 19.6146 11.5179 -20.1266 
-2.97481 86.64 59.6978 -3.59043 -4.42079 -29.8357 -7.96867 18.1933 4.94333 -54.3089 8.65581 20.9819 -29.4142 -6.57545 -39.7277 0.525769 0.0137033 -15.2731 5.351 -11.0369 -13.8089 35.2241 33.7928 46.7002 -3.25381 -1.11886 32.1204 -14.9564 1.31146 27.9549 -9.20245 15.6364 2.22778 45.4532 65.4807 -58.7299 -41.7704 1.05538 55.1769 -25.2982 -35.3766 -1.25979 25.2794 39.6815 -15.7667 14.1938 2.12206 -16.1267 
-7.34975 85.9051 64.5155 -3.98207 -6.34037 -28.0195 -9.17339 21.9905 6.15198 -51.7671 6.08138 7.85648 -26.645 -7.71873 -27.9803 -0.74791 -1.45196 -12.1015 6.3964 -11.6819 -13.0077 42.5861 28.8362 41.1 -1.65177 1.29734 20.8984 -10.7924 1.12081 21.7187 -12.4408 6.87066 2.30453 76.744 72.704 -89.551 -45.4438 -2.60584 49.6237 -25.7993 -35.0919 0.428094 32.6617 49.7594 -21.6217 13.4446 -4.22061 -16.4552 
-11.4084 85.8002 68.9643 -3.53115 -7.08572 -28.6213 -8.67808 22.5847 7.58057 -51.2097 3.52174 0.897127 -24.8711 -7.81889 -25.6033 0.463141 -1.28773 -10.9808 4.24217 -9.92458 -10.6071 46.8897 23.9039 33.4624 -0.13022 0.633685 15.8863 -6.76521 0.136169 16.7924 -15.0344 -5.67731 -0.153326 112.029 76.9147 -126.404 -37.0979 0.111723 34.7931 -23.2063 -33.5583 2.61708 33.0223 55.7608 -22.8699 12.1783 -10.2515 -14.8278 
-15.4242 86.3932 73.1173 -2.80649 -7.32542 -28.5357 -7.21828 22.5238 6.07741 -49.6898 -0.0181153 -1.03086 -26.7026 -8.26427 -31.5487 0.456616 -1.4302 -12.4696 0.955673 -8.25024 -7.40725 45.7486 22.6832 28.7808 -0.298138 0.255168 17.8795 -6.31234 0.287846 16.2905 -16.8657 -18.8189 -1.52338 126.019 78.2433 -132.994 -15.6357 2.98321 6.58498 -21.1379 -31.6383 4.29294 33.2965 59.5792 -24.407 11.0361 -12.836 -14.3183 
-19.0968 87.4026 76.5006 -2.11946 -7.17546 -28.1734 -5.42723 23.2448 4.12271 -46.9258 -1.65957 -2.66355 -27.8834 -8.03793 -40.765 1.1458 -0.874893 -14.2548 -2.69802 -8.36182 -4.47189 42.6931 22.534 25.3526 -0.560176 -1.43824 23.5321 -6.97001 0.30692 18.4288 -17.8064 -30.1182 -3.1545 102.021 83.4655 -101.963 -2.12417 -4.90957 -14.313 -16.9631 -30.9428 7.08191 30.2168 63.7543 -24.5031 12.1062 -11.5078 -15.751 
-22.8593 88.577 79.6014 -1.86592 -6.80432 -26.547 -2.60069 24.527 2.17905 -42.9615 -1.08936 -5.06151 -28.4577 -7.74269 -50.2928 2.74723 0.115555 -16.2331 -6.20609 -8.76768 -1.22407 40.4546 21.4509 20.7643 -0.984656 -3.70005 29.8434 -8.30583 0.57184 20.2218 -15.3835 -36.5384 -3.60686 -1.42494 78.4633 0.759631 0.944508 -8.77474 -14.5872 -11.5238 -31.8678 9.93862 26.8043 69.3171 -24.945 16.8014 -4.04712 -19.5685 
-26.8472 89.6534 82.9791 -2.17824 -6.04253 -23.1332 1.53724 25.9852 -0.227188 -38.6061 -1.20467 -8.12669 -29.6064 -7.64422 -59.3231 3.08357 0.300053 -17.582 -9.09527 -9.6071 1.68837 40.1205 18.2806 14.6614 -1.22304 -5.92775 35.0864 -9.23295 0.680993 21.3991 -11.518 -36.4899 -0.83138 -14.9382 58.7902 12.7995 3.92418 -7.36465 -6.56361 -5.38357 -33.9151 11.8912 24.3081 74.9103 -26.2259 24.0744 5.76648 -27.8358 
-30.8871 90.0565 86.7671 -2.55767 -5.39564 -17.6491 3.53028 25.8824 -2.79776 -32.8976 -4.00974 -11.4656 -31.5519 -7.5673 -67.3865 1.46248 -1.07906 -18.2771 -8.92588 -10.1786 3.59659 43.0535 15.8079 7.95526 -0.456455 -7.94381 38.9815 -9.23735 0.409243 21.8904 -11.0344 -31.8401 3.93011 -13.4943 39.8055 12.6042 4.90159 1.16717 -1.58172 -2.16565 -36.2578 11.942 38.808 79.4849 -40.5605 27.7928 7.64555 -34.4543 
-35.4011 89.1995 91.0439 -3.6256 -5.9623 -10.3061 4.29309 24.8707 -4.68929 -29.1171 -8.94597 -14.8944 -31.3613 -5.99375 -75.4105 -0.399795 -2.98979 -18.572 -7.57542 -9.0202 4.12495 47.6628 15.1625 0.898776 -0.384012 -8.86713 41.8649 -9.14284 0.442457 22.0742 -11.1011 -26.5987 9.69008 -13.1904 34.0692 13.4789 5.43208 4.44521 0.383265 -0.861615 -37.9713 10.8993 74.0996 81.1527 -72.9057 25.8351 4.21381 -29.6589 
-40.0953 87.0236 95.5139 -3.96229 -7.87352 -0.674023 2.36199 23.6171 -6.23557 -27.1994 -15.5299 -19.1886 -29.4583 -2.68391 -82.644 -3.8863 -6.07195 -17.9968 -4.45265 -6.57235 4.31863 54.0246 15.6495 -5.03045 -0.118885 -9.10315 42.8059 -8.28552 0.341935 21.164 -10.7351 -22.3185 12.4898 -16.8317 44.7611 15.9824 13.8978 -7.42812 2.71927 -2.46386 -40.4945 9.19594 101.2 78.0422 -96.17 23.8583 0.969947 -23.6652 
-44.4561 84.535 99.4766 -4.08303 -10.3918 7.46372 0.283923 23.771 -4.88797 -29.4512 -22.9257 -25.9901 -26.1527 1.53565 -87.9061 -10.3301 -10.6796 -17.2238 -1.47012 -4.52915 2.01954 58.1492 16.2726 -7.22077 1.80086 -9.13113 41.3535 -6.89685 -0.388991 20.3665 -11.9913 -19.4416 6.95143 -13.3985 56.2299 12.7716 13.4637 -19.2216 5.3341 -3.19215 -42.7064 9.1911 103.029 75.4974 -97.1107 22.4692 -1.19543 -22.2635 
